<svg xmlns="http://www.w3.org/2000/svg" viewBox="0 0 1000 1000">
  <path fill="#FFFFFF" d="
    M500 820
    C460 820 420 795 385 750
    C340 690 315 595 315 500
    C315 410 340 320 390 245
    C430 185 470 150 500 150
    C530 150 570 185 610 245
    C660 320 685 410 685 500
    C685 595 660 690 615 750
    C580 795 540 820 500 820
    Z

    M500 760
    C530 760 560 740 590 700
    C625 655 645 585 645 500
    C645 425 625 350 585 290
    C555 245 525 220 500 220
    C475 220 445 245 415 290
    C375 350 355 425 355 500
    C355 585 375 655 410 700
    C440 740 470 760 500 760
    Z

    M220 660
    C180 600 160 540 160 470
    C160 390 190 315 245 250
    C300 185 360 150 430 150
    C450 150 470 155 490 165
    C465 180 435 210 400 265
    C350 340 325 415 325 500
    C325 610 360 700 420 770
    C350 770 280 740 220 660
    Z

    M780 660
    C720 740 650 770 580 770
    C640 700 675 610 675 500
    C675 415 650 340 600 265
    C565 210 535 180 510 165
    C530 155 550 150 570 150
    C640 150 700 185 755 250
    C810 315 840 390 840 470
    C840 540 820 600 780 660
    Z
  "/>
</svg>